<svg xmlns="http://www.w3.org/2000/svg" viewBox="0 0 150.8 194">
<!-- SVG created with Arrow, by QuiverAI (https://quiver.ai) -->
  <style type="text/css">.cls-0 {fill:#41231B;}
.cls-1 {fill:#ECE2AB;}
.cls-2 {fill:none;stroke:#42271F;stroke-width:3.3666;}</style>
  <path class="cls-0" d="m143.9 57.8c0-6.8-2.6-13.4-6.9-18.5l-17.7-16.4-1.4 1.6-8.9 16.2v49.6h0.6c0.6 0.2 1.3 0.1 1.9 0.1h28.5c2.2 0 3.9-1.3 3.9-4v-28.6z"/>
  <path class="cls-0" d="m143.8 129.7c0-1.5-0.6-3.2-1.8-4l-17-15.9-13.6 17.6v7l-12.9 9.4-75.8 18.8 13.3 12.3c4.9 5 12 9.2 21 9.5h57.8-1.6c17.6 0 30.7-12.4 30.7-30.4l-0.1-24.3z"/>
  <path class="cls-1" d="m93.6 11h-54.1c-15.3 0-29.5 12.4-29.9 28.9l-0.1 94.7c0 14.4 10.7 30.6 30 31.5h53.6c17.9 0 30.4-12.8 30.4-30.7v-23.4c0-1.5-1.1-3.3-2.6-3.3h-30.4c-1.6 0-3.1 1.6-3.1 3.3v16c0 2.1-1.4 4-4.1 4h-33.3c-2.5 0-4.4-2-4.4-4.5v-78.1c0-2.1 1.9-3.8 3.9-3.8h32.5c2.4 0 4.4 1.8 4.4 4.3l0.2 16.1c0 1.2 1 2.4 2.3 2.4h30.7c2.1 0 3.9-1.7 3.9-3.8v-23.5c0-13.8-11.4-30.1-29.9-30.1z"/>
  <path class="cls-2" d="m94 11h-54.6c-15.3 0-29.9 11.9-30.3 28.9v94.5c0 14.6 10.9 32.6 30.8 31.7h52.6c17.4 0 30.3-12.4 30.7-30.1v-23.7c0-1.7-1.3-3.9-3-3.9h-29.4c-1.8 0-3.5 1.7-3.5 3.7v15.7c0 2.3-1.7 4.3-4 4.3l-33.2 0.2c-3.1 0-4.5-1.8-4.5-4.7v-78.1c0-2.2 1.9-4 4.1-4h32.5c2.6 0 4.3 1.8 4.3 4.2l0.1 16.2c0 1.3 1.1 2.7 2.4 2.7h31.8c2.1 0 2.2-0.9 2.2-2.3v-25.2c0-14.1-11.5-30.1-29-30.1z"/>
  <path class="cls-0" d="m84.1 65.8-14.5 0.1c-2.7 0-4.8 1.9-4.8 5.2v59.7l-15.4 2.2c-2.5-0.1-5-2-5-5.5l0.1-78.2c0.1-2.3 2-4.9 5.4-4.9l32.2-0.1c2.5-0.1 5.3 1.6 5.4 4.7l0.1 16.9-3.5-0.1z"/>
</svg>